<?xml version="1.0" standalone="no"?>
<svg xmlns="http://www.w3.org/2000/svg" width="489.13222430089456" height="274.03456805089456" viewBox="0 0 489.13222430089456 274.03456805089456"><g fill="#6590da" color="#6590da" transform="translate(0 0) scale(2.7403457)"><svg width="100.0" height="100.0" x="0.0" y="0.0" viewBox="0 0 100 100"><g><path d="M88.444,31.889c-2.128-0.605-4.336,0.635-4.938,2.76L76.5,59.404H34.076l-7.045-29.748c-0.4-1.688-1.843-2.926-3.572-3.064   L12.964,25.75c-2.205-0.182-4.13,1.465-4.307,3.668c-0.176,2.201,1.465,4.129,3.667,4.307l7.594,0.609l7.104,29.992   c0.428,1.805,2.038,3.078,3.893,3.078h48.611c1.789,0,3.361-1.188,3.848-2.91l7.83-27.668C91.805,34.701,90.57,32.49,88.444,31.889   z"></path><path d="M33.418,87.127c4.258,0,7.723-3.465,7.723-7.723s-3.465-7.723-7.723-7.723c-4.259,0-7.723,3.465-7.723,7.723   S29.159,87.127,33.418,87.127z M33.418,79.127c0.152,0,0.277,0.125,0.277,0.277c0,0.154-0.125,0.277-0.277,0.277   c-0.153,0-0.277-0.123-0.277-0.277C33.141,79.252,33.265,79.127,33.418,79.127z"></path><path d="M76.297,71.682c-4.258,0-7.721,3.465-7.721,7.723s3.463,7.723,7.721,7.723s7.723-3.465,7.723-7.723   S80.555,71.682,76.297,71.682z M76.02,79.404c0-0.152,0.125-0.277,0.277-0.277c0.153,0,0.279,0.125,0.279,0.277   C76.576,79.709,76.02,79.713,76.02,79.404z"></path><path d="M58.096,13.229L35.764,25.188c-1.46,0.783-2.01,2.602-1.229,4.062l11.96,22.332c0.782,1.461,2.601,2.01,4.062,1.229   l22.332-11.959c1.461-0.783,2.012-2.602,1.229-4.062L62.158,14.457C61.375,12.996,59.557,12.447,58.096,13.229z"></path></g></svg></g><path fill="#0b005d" fill-rule="nonzero" d="M16.42 24.56Q14.98 25.70 12.70 26.33Q10.41 26.95 7.08 26.95Q3.75 26.95 0 26.35L0 26.35L0 0.61Q3.79 0 6.57 0Q9.36 0 11.14 0.53Q12.93 1.05 14.06 1.95L14.06 1.95Q16.29 3.69 16.29 6.46Q16.29 9.22 14.28 11.04L14.28 11.04Q16.66 11.78 17.97 13.85L17.97 13.85Q19.16 15.70 19.16 17.96Q19.16 20.21 18.51 21.82Q17.85 23.42 16.42 24.56ZM5.18 4.22L5.18 10.31Q6.00 10.45 7.23 10.45Q8.46 10.45 9.25 10.13Q10.04 9.80 10.47 9.32L10.47 9.32Q11.17 8.52 11.17 7.09L11.17 7.09Q11.17 4.10 7.66 4.10L7.66 4.10Q6.17 4.10 5.18 4.22L5.18 4.22ZM8.07 14.49L8.07 14.49Q6.43 14.49 5.18 14.71L5.18 14.71L5.18 22.38Q6.54 22.73 8.05 22.73Q9.55 22.73 10.69 22.37Q11.84 22.01 12.62 21.39L12.62 21.39Q14.20 20.10 14.20 18.11L14.20 18.11Q14.20 14.49 8.07 14.49ZM38.18 16.21L38.18 0.39Q39.39 0.49 40.20 0.49L40.20 0.49L41.82 0.49Q42.64 0.49 43.54 0.33L43.54 0.33L43.54 16.48Q43.54 21.29 40.63 24.20L40.63 24.20Q37.87 26.95 33.71 26.95L33.71 26.95Q29.16 26.95 26.35 24.59L26.35 24.59Q23.20 21.93 23.20 16.93L23.20 16.93L23.20 0.39Q24.82 0.49 26.26 0.49Q27.70 0.49 28.63 0.33L28.63 0.33L28.63 17.19Q28.63 19.65 30.14 21.02L30.14 21.02Q31.54 22.27 33.65 22.27L33.65 22.27Q36.78 22.27 37.81 19.06L37.81 19.06Q38.18 17.91 38.18 16.21L38.18 16.21ZM61.41 26.46L55.55 26.46Q55.80 25.70 55.80 22.91L55.80 22.91L55.80 17.48Q52.42 10.04 51.48 8.19Q50.55 6.35 49.90 5.27L49.90 5.27Q47.87 1.84 47.45 1.33Q47.03 0.82 46.60 0.49L46.60 0.49L53.34 0.49Q53.55 0.88 53.93 1.64L53.93 1.64L58.65 11.62Q58.98 10.80 59.43 9.79L59.43 9.79Q63.69 0.63 63.75 0.49L63.75 0.49L70.20 0.49Q69.20 1.29 67.75 3.85L67.75 3.85Q67.30 4.61 66.86 5.59L66.86 5.59L62.44 14.79Q61.70 16.45 61.17 17.77L61.17 17.77L61.17 23.38Q61.17 25.33 61.41 26.46L61.41 26.46Z" transform="translate(289.035 0) scale(2.851)"></path><path fill="#0b005d" fill-rule="nonzero" d="M7.30 20.84L5.47 26.62Q3.79 26.46 1.54 26.46L1.54 26.46L0 26.46L8.50 2.66Q9.06 1.05 9.06 0.79Q9.06 0.53 9.04 0.47L9.04 0.47L9.06 0.43Q10.33 0.49 11.76 0.49L11.76 0.49Q12.93 0.49 14.57 0.45L14.57 0.45L14.59 0.49Q14.55 0.57 14.55 0.70L14.55 0.70Q14.55 1.07 15.14 2.68L15.14 2.68L23.81 26.52Q23.42 26.50 22.89 26.50L22.89 26.50Q22.89 26.50 21.88 26.46L21.88 26.46Q21.39 26.46 21.00 26.46L21.00 26.46L17.97 26.46L16.13 20.84L7.30 20.84ZM8.79 16.15L14.61 16.15L11.66 7.07L8.79 16.15ZM32.23 26.46L27.13 26.46Q27.25 25.80 27.25 25.02L27.25 25.02L27.25 0.49L31.15 0.49L41.50 16.78L41.50 1.82Q41.50 0.74 41.31 0.49L41.31 0.49L46.58 0.49Q46.48 1.27 46.48 2.21L46.48 2.21L46.48 26.46L42.42 26.46L32.23 10.82L32.23 26.46ZM59.82 26.95L59.82 26.95Q56.66 26.95 53.87 26.45L53.87 26.45L53.87 0.31Q56.45 0 59.85 0Q63.26 0 66.03 0.93Q68.79 1.86 70.64 3.57L70.64 3.57Q74.39 7.01 74.39 13.20L74.39 13.20Q74.39 20.14 70.21 23.73L70.21 23.73Q66.46 26.95 59.82 26.95ZM58.95 4.79L58.95 22.19Q60.21 22.42 61.48 22.42Q62.75 22.42 64.22 21.92Q65.68 21.43 66.76 20.37L66.76 20.37Q69.06 18.14 69.06 13.89L69.06 13.89Q69.06 6.89 63.96 5.29L63.96 5.29Q62.29 4.77 60.08 4.77L60.08 4.77L59.55 4.77Q59.26 4.77 58.95 4.79L58.95 4.79Z" transform="translate(289.035 84.833) scale(2.69)"></path><path fill="#0b005d" fill-rule="nonzero" d="M16.54 1.93L16.54 1.93L16.17 7.68L16.04 7.71Q14.59 5.55 11.11 4.90L11.11 4.90Q10.02 4.69 9.01 4.69Q8.01 4.69 7.29 4.86Q6.58 5.04 6.07 5.37L6.07 5.37Q5 6.07 5 7.21L5 7.21Q5 8.69 5.94 9.43L5.94 9.43Q7.11 10.33 9.82 10.69Q12.54 11.05 14.18 11.68Q15.82 12.30 16.88 13.26L16.88 13.26Q18.87 15.06 18.87 18.34L18.87 18.34Q18.87 22.64 15.63 24.96L15.63 24.96Q12.85 26.95 8.63 26.95L8.63 26.95Q5.23 26.95 1.91 25.66L1.91 25.66Q0.82 25.23 0 24.67L0 24.67L0.21 18.14L0.29 18.09Q2.71 22.27 8.24 22.27L8.24 22.27Q12.17 22.27 13.44 20.37L13.44 20.37Q13.87 19.73 13.87 18.94Q13.87 18.14 13.61 17.63Q13.36 17.11 12.77 16.74L12.77 16.74Q11.64 16.00 8.96 15.74Q6.29 15.49 4.59 14.79Q2.89 14.08 1.88 13.05L1.88 13.05Q0.04 11.17 0.04 7.81L0.04 7.81Q0.04 4.34 2.48 2.19L2.48 2.19Q4.96 0 9.17 0Q13.38 0 16.54 1.93ZM29.26 21.78L37.23 21.78Q38.44 21.78 38.91 21.54L38.91 21.54L38.98 21.56L38.79 26.46L24.16 26.46L24.16 0.35Q24.69 0.39 25.33 0.41L25.33 0.41L26.70 0.45Q28.07 0.49 29.67 0.49L29.67 0.49Q34.14 0.49 38.52 0.33L38.52 0.33Q38.30 2.05 38.30 4.92L38.30 4.92Q38.30 5.23 38.34 5.39L38.34 5.39L38.30 5.45Q37.29 5.16 35.41 5.16L35.41 5.16L29.26 5.16L29.26 10.14L33.89 10.14Q36.04 10.14 36.46 10.02L36.46 10.02L36.52 14.84Q35.59 14.75 34.10 14.75L34.10 14.75L29.26 14.75L29.26 21.78ZM49.86 26.46L48.01 26.46Q45.14 26.46 44.20 26.58L44.20 26.58L44.20 0.37Q44.67 0.49 46.14 0.49Q47.62 0.49 49.57 0.41L49.57 0.41L49.57 21.78L53.61 21.78Q55.37 21.78 56.43 21.66L56.43 21.66Q56.29 26.23 56.29 26.41L56.29 26.41L56.29 26.60Q54.38 26.46 49.86 26.46L49.86 26.46ZM66.56 26.46L64.71 26.46Q61.84 26.46 60.90 26.58L60.90 26.58L60.90 0.37Q61.37 0.49 62.84 0.49Q64.32 0.49 66.27 0.41L66.27 0.41L66.27 21.78L70.31 21.78Q72.07 21.78 73.13 21.66L73.13 21.66Q72.99 26.23 72.99 26.41L72.99 26.41L72.99 26.60Q71.07 26.46 66.56 26.46L66.56 26.46Z" transform="translate(289.035 165.328) scale(2.737)"></path><path fill="#0b005d" fill-rule="nonzero" d="M5.10 21.78L13.07 21.78Q14.28 21.78 14.75 21.54L14.75 21.54L14.82 21.56L14.63 26.46L0 26.46L0 0.35Q0.53 0.39 1.17 0.41L1.17 0.41L2.54 0.45Q3.91 0.49 5.51 0.49L5.51 0.49Q9.98 0.49 14.36 0.33L14.36 0.33Q14.14 2.05 14.14 4.92L14.14 4.92Q14.14 5.23 14.18 5.39L14.18 5.39L14.14 5.45Q13.13 5.16 11.25 5.16L11.25 5.16L5.10 5.16L5.10 10.14L9.73 10.14Q11.88 10.14 12.30 10.02L12.30 10.02L12.36 14.84Q11.43 14.75 9.94 14.75L9.94 14.75L5.10 14.75L5.10 21.78ZM35.72 1.93L35.72 1.93L35.35 7.68L35.21 7.71Q33.77 5.55 30.29 4.90L30.29 4.90Q29.20 4.69 28.19 4.69Q27.19 4.69 26.47 4.86Q25.76 5.04 25.25 5.37L25.25 5.37Q24.18 6.07 24.18 7.21L24.18 7.21Q24.18 8.69 25.12 9.43L25.12 9.43Q26.29 10.33 29.00 10.69Q31.72 11.05 33.36 11.68Q35 12.30 36.05 13.26L36.05 13.26Q38.05 15.06 38.05 18.34L38.05 18.34Q38.05 22.64 34.80 24.96L34.80 24.96Q32.03 26.95 27.81 26.95L27.81 26.95Q24.41 26.95 21.09 25.66L21.09 25.66Q20 25.23 19.18 24.67L19.18 24.67L19.39 18.14L19.47 18.09Q21.89 22.27 27.42 22.27L27.42 22.27Q31.35 22.27 32.62 20.37L32.62 20.37Q33.05 19.73 33.05 18.94Q33.05 18.14 32.79 17.63Q32.54 17.11 31.95 16.74L31.95 16.74Q30.82 16.00 28.14 15.74Q25.47 15.49 23.77 14.79Q22.07 14.08 21.05 13.05L21.05 13.05Q19.22 11.17 19.22 7.81L19.22 7.81Q19.22 4.34 21.66 2.19L21.66 2.19Q24.14 0 28.35 0Q32.56 0 35.72 1.93ZM42.97 26.46L42.97 0.35Q45.68 0 48.54 0L48.54 0Q53.85 0 56.61 2.49Q59.38 4.98 59.38 9.94L59.38 9.94Q59.38 14.38 56.35 16.95L56.35 16.95Q53.52 19.38 49.06 19.38L49.06 19.38Q48.55 19.38 47.95 19.32L47.95 19.32L47.95 26.46L42.97 26.46ZM49.12 4.71L49.12 4.71Q48.54 4.71 47.95 4.75L47.95 4.75L47.95 15.02Q48.57 15.10 49.47 15.10Q50.37 15.10 51.35 14.72Q52.32 14.34 52.99 13.65L52.99 13.65Q54.38 12.23 54.38 9.90L54.38 9.90Q54.38 4.71 49.12 4.71ZM68.48 21.78L76.45 21.78Q77.66 21.78 78.13 21.54L78.13 21.54L78.20 21.56L78.01 26.46L63.38 26.46L63.38 0.35Q63.91 0.39 64.55 0.41L64.55 0.41L65.92 0.45Q67.29 0.49 68.89 0.49L68.89 0.49Q73.36 0.49 77.73 0.33L77.73 0.33Q77.52 2.05 77.52 4.92L77.52 4.92Q77.52 5.23 77.56 5.39L77.56 5.39L77.52 5.45Q76.50 5.16 74.63 5.16L74.63 5.16L68.48 5.16L68.48 10.14L73.11 10.14Q75.25 10.14 75.68 10.02L75.68 10.02L75.74 14.84Q74.80 14.75 73.32 14.75L73.32 14.75L68.48 14.75L68.48 21.78ZM96.35 26.62L91.82 16.37Q91.23 16.41 90.57 16.41Q89.90 16.41 88.59 16.31L88.59 16.31L88.59 26.46L83.42 26.46L83.42 0.35Q86.15 0 90.14 0L90.14 0Q95.57 0 98.23 2.00Q100.90 4.00 100.90 8.18L100.90 8.18Q100.90 11.43 98.46 13.73L98.46 13.73Q97.66 14.47 96.62 15.02L96.62 15.02L100.61 23.42Q101.78 26.02 102.40 26.50L102.40 26.50L102.30 26.60Q100.41 26.29 96.35 26.62L96.35 26.62ZM90.51 4.61L90.51 4.61Q89.51 4.61 88.59 4.71L88.59 4.71L88.59 12.17Q89.55 12.30 90.84 12.30Q92.13 12.30 93.01 12.08Q93.89 11.86 94.53 11.39L94.53 11.39Q95.92 10.35 95.92 8.28Q95.92 6.21 94.47 5.37L94.47 5.37Q93.13 4.61 90.51 4.61ZM110.45 20.84L108.61 26.62Q106.93 26.46 104.69 26.46L104.69 26.46L103.14 26.46L111.64 2.66Q112.21 1.05 112.21 0.79Q112.21 0.53 112.19 0.47L112.19 0.47L112.21 0.43Q113.48 0.49 114.90 0.49L114.90 0.49Q116.07 0.49 117.71 0.45L117.71 0.45L117.73 0.49Q117.70 0.57 117.70 0.70L117.70 0.70Q117.70 1.07 118.28 2.68L118.28 2.68L126.95 26.52Q126.56 26.50 126.04 26.50L126.04 26.50Q126.04 26.50 125.02 26.46L125.02 26.46Q124.53 26.46 124.14 26.46L124.14 26.46L121.11 26.46L119.28 20.84L110.45 20.84ZM111.93 16.15L117.75 16.15L114.80 7.07L111.93 16.15ZM135.37 26.46L130.27 26.46Q130.39 25.80 130.39 25.02L130.39 25.02L130.39 0.49L134.30 0.49L144.65 16.78L144.65 1.82Q144.65 0.74 144.45 0.49L144.45 0.49L149.73 0.49Q149.63 1.27 149.63 2.21L149.63 2.21L149.63 26.46L145.57 26.46L135.37 10.82L135.37 26.46ZM156.07 2.83L156.07 2.25Q156.07 1.60 156.02 0.49L156.02 0.49L174.53 0.49L163.16 21.78L170.25 21.78Q173.03 21.78 173.53 21.61Q174.02 21.45 174.32 21.31L174.32 21.31L174.32 26.76Q173.48 26.68 172.93 26.62Q172.38 26.56 171.78 26.52L171.78 26.52Q170.86 26.46 168.22 26.46L168.22 26.46L155.08 26.46L166.84 5.18L160.68 5.18Q156.88 5.18 155.84 5.59L155.84 5.59Q156.07 4.61 156.07 2.83L156.07 2.83ZM183.59 20.84L181.76 26.62Q180.08 26.46 177.83 26.46L177.83 26.46L176.29 26.46L184.79 2.66Q185.35 1.05 185.35 0.79Q185.35 0.53 185.33 0.47L185.33 0.47L185.35 0.43Q186.62 0.49 188.05 0.49L188.05 0.49Q189.22 0.49 190.86 0.45L190.86 0.45L190.88 0.49Q190.84 0.57 190.84 0.70L190.84 0.70Q190.84 1.07 191.43 2.68L191.43 2.68L200.10 26.52Q199.71 26.50 199.18 26.50L199.18 26.50Q199.18 26.50 198.16 26.46L198.16 26.46Q197.68 26.46 197.29 26.46L197.29 26.46L194.26 26.46L192.42 20.84L183.59 20.84ZM185.08 16.15L190.90 16.15L187.95 7.07L185.08 16.15Z" transform="translate(289.035 247.082) scale(1)"></path></svg>